#!OML:ASF H:\MichaelJackson\Top Level 1\Subject 1\Session 1\male.ASF
:FULLY-SPECIFIED
:DEGREES
204
root 4.87732 15.059 -25.4293 7.07764 -1.63086 5.70066
lowerback -3.53686 -1.59159 -0.388914
upperback -0.572166 -2.01307 -7.7479
thorax 1.12633 -1.01101 -7.97579
lowerneck -11.6857 0.40345 6.8474
upperneck 3.78247 -0.661226 2.53792
head 3.29318 -0.100511 -0.41573
rclavicle 9.93923e-017 -1.27222e-014
rhumerus -3.26601 -12.1528 -11.388
rradius 53.9006
rwrist -23.879
rhand -21.1893 -49.6806
rfingers 7.12502
rthumb 5.19161 -439.597
lclavicle 9.93923e-017 -1.27222e-014
lhumerus -58.9313 -46.763 115.811
lradius 54.0188
lwrist 26.8256
lhand 39.9977 30.8286
lfingers 7.12502
lthumb 62.3933 41.8241
rfemur -31.1628 -19.4668 -8.84644
rtibia 50.5057
rfoot -26.478 17.8656
rtoes 60.1521
lfemur 7.76387 -1.25168 0.614201
ltibia 5.81595
lfoot -35.9075 -12.7284
ltoes 46.8864
205
root 4.85844 15.0453 -25.4444 7.14443 -1.66512 5.65981
lowerback -3.27617 -1.48144 -0.422796
upperback -0.63477 -1.88108 -7.71483
thorax 0.935054 -0.948812 -7.90368
lowerneck -11.5422 0.370939 6.94623
upperneck 3.8502 -0.702661 2.44719
head 3.2882 -0.12214 -0.46545
rclavicle -2.26615e-014 -3.33958e-014
rhumerus -2.50207 -20.2423 -12.7942
rradius 52.7451
rwrist -22.4045
rhand -30.5263 -55.2371
rfingers 7.12502
rthumb -3.82569 -445.182
lclavicle -2.26615e-014 -3.33958e-014
lhumerus -59.2096 -46.9624 116.228
lradius 53.9907
lwrist 25.9978
lhand 40.3788 30.1548
lfingers 7.12502
lthumb 62.7085 40.7378
rfemur -31.5244 -19.8187 -8.66657
rtibia 50.8507
rfoot -26.4829 18.1731
rtoes 60.2318
lfemur 7.77373 -1.44571 0.691963
ltibia 5.64567
lfoot -36.1232 -12.2446
ltoes 46.8712
206
root 4.83833 15.0352 -25.4604 7.21493 -1.61263 5.61233
lowerback -2.9768 -1.39862 -0.460177
upperback -0.690901 -1.78726 -7.67034
thorax 0.723885 -0.905881 -7.81859
lowerneck -11.4038 0.350607 6.99238
upperneck 3.87329 -0.719088 2.3666
head 3.26906 -0.133286 -0.50078
rclavicle -1.02374e-014 -6.20208e-014
rhumerus -2.33153 -26.8475 -14.0552
rradius 53.4839
rwrist -21.7815
rhand -38.3067 -60.1346
rfingers 7.12502
rthumb -11.335 -449.808
lclavicle -1.02374e-014 -6.20208e-014
lhumerus -59.4198 -47.063 116.529
lradius 54.0214
lwrist 25.3219
lhand 40.6919 29.6464
lfingers 7.12502
lthumb 62.9662 39.8829
rfemur -31.8077 -20.1323 -8.48266
rtibia 51.1441
rfoot -26.5461 18.393
rtoes 60.2851
lfemur 7.67108 -1.71991 0.80445
ltibia 5.56251
lfoot -36.1723 -11.8531
ltoes 46.9532
207
root 4.81688 15.0289 -25.4771 7.29181 -1.48238 5.54624
lowerback -2.65354 -1.35364 -0.505119
upperback -0.734526 -1.74455 -7.60297
thorax 0.506301 -0.888343 -7.70642
lowerneck -11.2699 0.356179 6.98882
upperneck 3.84121 -0.69289 2.30181
head 3.23254 -0.125298 -0.519254
rclavicle 3.8763e-015 -6.36111e-015
rhumerus -2.88701 -31.384 -14.9553
rradius 55.764
rwrist -22.019
rhand -44.3783 -64.1768
rfingers 7.12502
rthumb -17.1853 -626.563
lclavicle 3.8763e-015 -6.36111e-015
lhumerus -59.5572 -47.0428 116.716
lradius 54.1203
lwrist 24.8729
lhand 40.8051 29.327
lfingers 7.12502
lthumb 63.0592 39.4365
rfemur -32.0244 -20.3989 -8.27833
rtibia 51.3881
rfoot -26.6556 18.5203
rtoes 60.315
lfemur 7.42444 -2.06268 0.955612
ltibia 5.63723
lfoot -36.0728 -11.5447
ltoes 47.123
208
root 4.79433 15.0265 -25.4942 7.37821 -1.28741 5.44671
lowerback -2.32942 -1.35716 -0.559448
upperback -0.759743 -1.76568 -7.498
thorax 0.300536 -0.902126 -7.55067
lowerneck -11.1417 0.401142 6.94063
upperneck 3.75254 -0.606913 2.24868
head 3.1789 -0.0897473 -0.522179
rclavicle -1.60022e-014 -4.29375e-014
rhumerus -4.1053 -33.7673 -15.4708
rradius 59.0774
rwrist -22.7432
rhand -48.6807 -66.9678
rfingers 7.12502
rthumb -21.3223 -624.185
lclavicle -1.60022e-014 -4.29375e-014
lhumerus -59.6282 -46.8831 116.804
lradius 54.2919
lwrist 24.6976
lhand 40.5664 29.1722
lfingers 7.12502
lthumb 62.863 39.5484
rfemur -32.1858 -20.6112 -8.0349
rtibia 51.5809
rfoot -26.8002 18.5549
rtoes 60.324
lfemur 7.00741 -2.45803 1.15317
ltibia 5.93877
lfoot -35.8472 -11.3041
ltoes 47.3633
209
root 4.77125 15.028 -25.5113 7.47577 -1.04632 5.29561
lowerback -2.0277 -1.41691 -0.619155
upperback -0.761724 -1.85956 -7.33989
thorax 0.124597 -0.951279 -7.33711
lowerneck -11.0197 0.497443 6.85025
upperneck 3.61305 -0.445735 2.19984
head 3.11075 -0.0189374 -0.511705
rclavicle 8.34896e-015 4.77083e-014
rhumerus -5.73786 -34.2174 -15.7718
rradius 62.9414
rwrist -23.4146
rhand -51.2407 -67.921
rfingers 7.12502
rthumb -23.7795 -623.531
lclavicle 8.34896e-015 4.77083e-014
lhumerus -59.6475 -46.5756 116.821
lradius 54.5338
lwrist 24.8079
lhand 39.8441 29.1198
lfingers 7.12502
lthumb 62.2658 40.2788
rfemur -32.3034 -20.759 -7.73114
rtibia 51.7168
rfoot -26.9685 18.5007
rtoes 60.314
lfemur 6.40854 -2.88516 1.41202
ltibia 6.51572
lfoot -35.519 -11.1051
ltoes 47.6492
210
root 4.74836 15.0333 -25.5282 7.5855 -0.77519 5.07698
lowerback -1.7674 -1.53765 -0.676072
upperback -0.737438 -2.03137 -7.11667
thorax -0.00696293 -1.03812 -7.05782
lowerneck -10.9099 0.652023 6.7231
upperneck 3.43937 -0.201483 2.1409
head 3.0352 0.0913078 -0.493372
rclavicle 1.92821e-014 5.40694e-014
rhumerus -7.47416 -33.0518 -16.1092
rradius 66.9971
rwrist -23.5455
rhand -52.1685 -66.5716
rfingers 7.12502
rthumb -24.669 -624.998
lclavicle 1.92821e-014 5.40694e-014
lhumerus -59.6377 -46.1292 116.804
lradius 54.8358
lwrist 25.1865
lhand 38.5393 29.062
lfingers 7.12502
lthumb 61.1737 41.5482
rfemur -32.3856 -20.8365 -7.34977
rtibia 51.7877
rfoot -27.1501 18.3657
rtoes 60.2859
lfemur 5.62906 -3.32602 1.74998
ltibia 7.38682
lfoot -35.1036 -10.9072
ltoes 47.948
211
root 4.72652 15.0422 -25.545 7.70309 -0.491237 4.781
lowerback -1.55725 -1.71709 -0.719351
upperback -0.684689 -2.27746 -6.82404
thorax -0.0850889 -1.16073 -6.7149
lowerneck -10.8231 0.864097 6.56772
upperneck 3.25503 0.122515 2.05509
head 2.96236 0.239828 -0.474647
rclavicle 1.98785e-016 1.43125e-014
rhumerus -9.06837 -30.5869 -16.6934
rradius 71.0267
rwrist -22.8175
rhand -51.6573 -63.0713
rfingers 7.12502
rthumb -24.1789 -628.433
lclavicle 1.98785e-016 1.43125e-014
lhumerus -59.6189 -45.5717 116.787
lradius 55.1807
lwrist 25.7799
lhand 36.6442 28.8925
lfingers 7.12502
lthumb 59.5601 43.1265
rfemur -32.4355 -20.8402 -6.88321
rtibia 51.7854
rfoot -27.3336 18.1638
rtoes 60.2405
lfemur 4.68749 -3.76403 2.18034
ltibia 8.54457
lfoot -34.6162 -10.6571
ltoes 48.2181
212
root 4.70651 15.0543 -25.5621 7.8219 -0.208577 4.40435
lowerback -1.39436 -1.94551 -0.736344
upperback -0.602939 -2.58504 -6.467
thorax -0.108315 -1.31285 -6.32161
lowerneck -10.7707 1.12394 6.39262
upperneck 3.08338 0.510699 1.93349
head 2.90208 0.419618 -0.460901
rclavicle -3.57812e-015 7.95139e-015
rhumerus -10.3994 -27.108 -17.6367
rradius 74.9298
rwrist -21.1353
rhand -50.0035 -58.2678
rfingers 7.12502
rthumb -22.5925 -806.966
lclavicle -3.57812e-015 7.95139e-015
lhumerus -59.6064 -44.951 116.798
lradius 55.5463
lwrist 26.5138
lhand 34.2263 28.5208
lfingers 7.12502
lthumb 57.4611 44.7161
rfemur -32.4535 -20.7713 -6.33181
rtibia 51.7038
rfoot -27.5086 17.9107
rtoes 60.179
lfemur 3.60755 -4.18699 2.71139
ltibia 9.96627
lfoot -34.0805 -10.2927
ltoes 48.4043
213
root 4.68894 15.0691 -25.58 7.93273 0.0638409 3.95353
lowerback -1.26274 -2.20678 -0.718141
upperback -0.494021 -2.93363 -6.06
thorax -0.0849776 -1.48457 -5.89875
lowerneck -10.7624 1.4135 6.20738
upperneck 2.94361 0.936407 1.77589
head 2.86218 0.618201 -0.45519
rclavicle 3.83654e-014 2.38542e-014
rhumerus -11.4608 -22.8662 -18.9623
rradius 78.6839
rwrist -18.6178
rhand -47.5969 -53.2039
rfingers 7.12502
rthumb -20.281 -802.165
lclavicle 3.83654e-014 2.38542e-014
lhumerus -59.6058 -44.3256 116.853
lradius 55.9075
lwrist 27.2945
lhand 31.4357 27.9005
lfingers 7.12502
lthumb 54.9928 46.0444
rfemur -32.4361 -20.639 -5.70786
rtibia 51.5412
rfoot -27.6652 17.623
rtoes 60.103
lfemur 2.41425 -4.58721 3.3426
ltibia 11.6219
lfoot -33.5277 -9.75183
ltoes 48.4382
